Patient4_TMGait_0pt4_02_right_08_GRF.mot
version=1
nRows=58
nColumns=19
inDegrees=no
endheader
time	F1x	F1y	F1z	M1x	M1y	M1z	F2x	F2y	F2z	M2x	M2y	M2z	EC1x	EC1y	EC1z	EC2x	EC2y	EC2z
10.11	-4.0624	763.018	82.8136	-254.0435	-85.3312	848.009	-15.4245	-10.6202	0.54889	-1.0572	2.7683	-4.9698	-0.0592	0.0182	-0.0073	-0.0462	0.0165	0.9585
10.1234	-3.3792	749.1323	77.2992	-249.4637	-79.5774	830.616	-10.2899	-6.3108	0.21563	-0.34489	1.9905	-2.3513	-0.0592	0.0182	-0.0073	-0.0462	0.0165	0.9585
10.1367	-2.1553	736.3143	72.4339	-245.0917	-74.193	813.8692	-6.0033	-2.6559	-0.023759	0.2505	1.3241	-0.13031	-0.0592	0.0182	-0.0073	-0.0462	0.0165	0.9585
10.1501	-0.42215	726.0151	68.4464	-241.4413	-69.4237	799.4156	-2.7858	0.13538	-0.17778	0.70155	0.8158	1.5735	-0.0592	0.0182	-0.0073	-0.0462	0.0165	0.9585
10.1634	1.6951	719.2371	65.3653	-238.9028	-65.3552	788.4377	-0.60151	2.0776	-0.26085	1.0134	0.46514	2.7692	-0.0592	0.0182	-0.0073	-0.0462	0.0165	0.9585
10.1768	4.0636	716.5015	63.0925	-237.7038	-61.9555	781.5868	0.70648	3.2991	-0.30004	1.2069	0.26192	3.5394	-0.0592	0.0182	-0.0073	-0.0462	0.0165	0.9585
10.1901	6.575	717.8313	61.4827	-237.8922	-59.1345	778.9734	1.3415	3.9284	-0.31074	1.2976	0.17544	3.9355	-0.0592	0.0182	-0.0073	-0.0462	0.0165	0.9585
10.2035	9.1502	722.7998	60.3951	-239.3461	-56.7905	780.2105	1.4948	4.0957	-0.31516	1.2983	0.18452	4.0168	-0.0592	0.0182	-0.0073	-0.0462	0.0165	0.9585
10.2169	11.7429	730.6288	59.6818	-241.8085	-54.8045	784.5063	1.3481	3.8932	-0.32077	1.2111	0.25814	3.7981	-0.0592	0.0182	-0.0073	-0.0462	0.0165	0.9585
10.2302	14.3182	740.2751	59.239	-244.9198	-53.0903	790.795	1.0257	3.3484	-0.33433	1.0207	0.37873	3.2415	-0.0592	0.0182	-0.0073	-0.0462	0.0165	0.9585
10.2436	16.8814	750.5662	58.9609	-248.2667	-51.5495	797.8712	0.62745	2.4578	-0.35123	0.70553	0.52203	2.2975	-0.0592	0.0182	-0.0073	-0.0462	0.0165	0.9585
10.2569	19.3975	760.3278	58.8049	-251.4236	-50.1527	804.5499	0.25079	1.2049	-0.375	0.24432	0.66485	0.91023	-0.0592	0.0182	-0.0073	-0.0462	0.0165	0.9585
10.2703	21.8348	768.4905	58.743	-253.9963	-48.8881	809.7485	-0.03722	-0.41551	-0.39415	-0.37262	0.76936	-0.94577	-0.0592	0.0182	-0.0073	-0.0462	0.0165	0.9585
10.2836	24.1288	774.1399	58.794	-255.6449	-47.7963	812.5616	-0.15021	-2.3542	-0.39615	-1.128	0.7844	-3.2256	-0.0592	0.0182	-0.0073	-0.0462	0.0165	0.9585
10.297	26.2048	776.6167	58.9663	-256.1246	-46.9199	812.3471	0.01533	-4.4258	-0.35026	-1.9486	0.62965	-5.6994	-0.0592	0.0182	-0.0073	-0.0462	0.0165	0.9585
10.3104	27.9988	775.6727	59.2855	-255.3428	-46.318	808.875	0.57855	-6.2792	-0.21833	-2.6896	0.20956	-7.9302	-0.0592	0.0182	-0.0073	-0.0462	0.0165	0.9585
10.3237	29.4899	771.5729	59.7777	-253.3916	-46.0321	802.4296	1.6697	-7.3041	0.054706	-3.1015	-0.58936	-9.1631	-0.0592	0.0182	-0.0073	-0.0462	0.0165	0.9585
10.3371	30.722	765.0158	60.4823	-250.5168	-46.0932	793.6975	3.4147	-6.5502	0.52324	-2.8008	-1.8755	-8.2124	-0.0592	0.0182	-0.0073	-0.0462	0.0165	0.9585
10.3504	31.7822	756.9209	61.4089	-247.0469	-46.4898	783.5754	5.8964	-2.7066	1.2406	-1.2596	-3.7332	-3.4623	-0.0592	0.0182	-0.0073	-0.0462	0.0165	0.9585
10.3638	32.8179	748.1702	62.507	-243.3084	-47.132	772.9139	9.076	5.864	2.2364	2.1802	-6.1729	7.0918	-0.0592	0.0182	-0.0073	-0.0462	0.0165	0.9585
10.3771	33.9696	739.3171	63.6578	-239.5264	-47.852	762.2332	12.721	20.9796	3.4899	8.2493	-9.0676	25.6726	-0.0592	0.0182	-0.0073	-0.0462	0.0165	0.9585
10.3905	35.3334	730.3539	64.6502	-235.7427	-48.4063	751.4958	16.2799	44.3213	4.8984	17.6197	-12.0589	54.3293	-0.0592	0.0182	-0.0073	-0.0462	0.0165	0.9585
10.4039	36.9242	720.585	65.1963	-231.7731	-48.4992	739.9822	18.7453	76.8371	6.229	30.6693	-14.4502	94.2019	-0.0592	0.0182	-0.0073	-0.0462	0.0165	0.9585
10.4172	38.6739	708.7442	64.9721	-227.242	-47.8279	726.4254	18.5885	117.9298	7.0602	47.155	-15.123	144.5318	-0.0592	0.0182	-0.0073	-0.0462	0.0165	0.9585
10.4306	40.4253	693.263	63.6894	-221.6717	-46.1507	709.2699	14.6933	165.1974	6.7836	66.0728	-12.9127	202.4328	-0.0592	0.0182	-0.0073	-0.0462	0.0165	0.9585
10.4439	41.9841	672.7148	61.1737	-214.6193	-43.3583	687.1158	7.5167	214.3484	4.9702	85.6505	-7.5187	262.7182	-0.0592	0.0182	-0.0073	-0.0462	0.0165	0.9585
10.4573	43.1652	646.14	57.4148	-205.7849	-39.5022	659.0259	-0.88924	259.7325	1.6004	103.6231	0.17075	318.341	-0.0592	0.0182	-0.0073	-0.0462	0.0165	0.9585
10.4706	43.7982	613.2302	52.5857	-195.0626	-34.8053	624.7194	-8.5103	297.1241	-2.7956	118.3206	8.6831	363.9634	-0.0592	0.0182	-0.0073	-0.0462	0.0165	0.9585
10.484	43.7564	574.3729	46.9582	-182.5565	-29.5715	584.6174	-14.441	325.3875	-7.4862	129.3288	16.7538	398.1468	-0.0592	0.0182	-0.0073	-0.0462	0.0165	0.9585
10.4974	42.9956	530.5806	40.8704	-168.5621	-24.1402	539.7618	-18.5949	346.1011	-11.721	137.3235	23.4701	422.9036	-0.0592	0.0182	-0.0073	-0.0462	0.0165	0.9585
10.5107	41.5497	483.304	34.6198	-153.5152	-18.7842	491.6109	-21.3099	362.3049	-15.1053	143.5567	28.5137	442.0378	-0.0592	0.0182	-0.0073	-0.0462	0.0165	0.9585
10.5241	39.452	434.1625	28.4786	-137.9061	-13.7441	441.7809	-23.0375	377.6968	-17.5214	149.52	31.9665	460.0768	-0.0592	0.0182	-0.0073	-0.0462	0.0165	0.9585
10.5374	36.7485	384.6745	22.6861	-122.193	-9.2263	391.7583	-24.1962	396.0226	-19.2522	156.6906	34.3608	481.5348	-0.0592	0.0182	-0.0073	-0.0462	0.0165	0.9585
10.5508	33.4387	336.1133	17.4847	-106.7588	-5.4506	342.7873	-25.1333	420.4293	-20.8156	166.2747	36.4817	510.1772	-0.0592	0.0182	-0.0073	-0.0462	0.0165	0.9585
10.5641	29.5082	289.477	13.0714	-91.9066	-2.6033	295.8223	-26.1598	452.6789	-22.8037	178.9191	39.1663	548.1054	-0.0592	0.0182	-0.0073	-0.0462	0.0165	0.9585
10.5775	24.949	245.5551	9.5568	-77.8851	-0.79101	251.6057	-27.5348	492.7818	-25.7402	194.5824	43.1283	595.3081	-0.0592	0.0182	-0.0073	-0.0462	0.0165	0.9585
10.5909	19.8584	205.0268	6.9458	-64.9202	0.005843	210.7742	-29.4421	539.2925	-29.8724	212.6658	48.7167	650.011	-0.0592	0.0182	-0.0073	-0.0462	0.0165	0.9585
10.6042	14.4687	168.4629	5.1604	-53.2109	-0.071042	173.8571	-31.9476	589.7886	-35.1086	232.2107	55.8254	709.2707	-0.0592	0.0182	-0.0073	-0.0462	0.0165	0.9585
10.6176	9.1128	136.2075	4.0724	-42.8848	-0.79774	141.1733	-34.9661	641.2428	-41.0274	252.0525	63.9107	769.4252	-0.0592	0.0182	-0.0073	-0.0462	0.0165	0.9585
10.6309	4.1745	108.2411	3.4831	-33.9532	-1.8682	112.6865	-38.2881	690.3823	-47.1324	270.9408	72.2852	826.5448	-0.0592	0.0182	-0.0073	-0.0462	0.0165	0.9585
10.6443	-0.057789	84.2642	3.1906	-26.3308	-2.9956	88.1146	-41.6116	734.0928	-52.8664	287.6962	80.1764	876.897	-0.0592	0.0182	-0.0073	-0.0462	0.0165	0.9585
10.6576	-3.3742	63.8553	3.0159	-19.8842	-3.9402	67.0633	-44.658	769.8448	-57.7823	301.3634	86.9453	917.4797	-0.0592	0.0182	-0.0073	-0.0462	0.0165	0.9585
10.671	-5.6472	46.6121	2.8378	-14.4773	-4.5373	49.1792	-47.1706	795.9526	-61.5591	311.3113	92.1272	946.3155	-0.0592	0.0182	-0.0073	-0.0462	0.0165	0.9585
10.6844	-6.7928	32.2659	2.5632	-10.0095	-4.6696	34.2443	-48.9265	811.6888	-64.1171	317.2659	95.545	962.5865	-0.0592	0.0182	-0.0073	-0.0462	0.0165	0.9585
10.6977	-6.8032	20.6784	2.1694	-6.421	-4.3136	22.1423	-49.7738	817.2631	-65.5034	319.3064	97.2081	966.593	-0.0592	0.0182	-0.0073	-0.0462	0.0165	0.9585
10.7111	-5.8879	11.8245	1.6852	-3.6914	-3.5683	12.8598	-49.6314	813.7091	-65.8677	317.8296	97.265	959.6101	-0.0592	0.0182	-0.0073	-0.0462	0.0165	0.9585
10.7244	-4.5671	5.648	1.2055	-1.795	-2.691	6.3538	-48.5188	802.7474	-65.3476	313.4952	95.8898	943.7225	-0.0592	0.0182	-0.0073	-0.0462	0.0165	0.9585
10.7378	-3.2042	1.7746	0.80646	-0.6136	-1.8737	2.2529	-46.5522	786.5566	-64.1185	307.1393	93.3324	921.5474	-0.0592	0.0182	-0.0073	-0.0462	0.0165	0.9585
10.7511	-2.0221	-0.29206	0.49922	0.0083358	-1.1995	0.056223	-43.9434	767.597	-62.3785	299.7035	89.9089	896.0221	-0.0592	0.0182	-0.0073	-0.0462	0.0165	0.9585
10.7645	-1.0863	-1.094	0.29826	0.2374	-0.70652	-0.82748	-40.9276	748.3435	-60.4125	292.13	86.041	870.0661	-0.0592	0.0182	-0.0073	-0.0462	0.0165	0.9585
10.7779	-0.42635	-1.0851	0.17282	0.21527	-0.37768	-0.86182	-37.7188	730.9908	-58.5135	285.2551	82.1494	846.2248	-0.0592	0.0182	-0.0073	-0.0462	0.0165	0.9585
10.7912	-0.010311	-0.61962	0.11918	0.054551	-0.19983	-0.41729	-34.4698	717.3056	-56.9179	279.7588	78.5629	826.4948	-0.0592	0.0182	-0.0073	-0.0462	0.0165	0.9585
10.8046	0.21281	0.050081	0.10349	-0.16481	-0.1252	0.2429	-31.2483	708.5959	-55.7449	276.1514	75.4503	812.3055	-0.0592	0.0182	-0.0073	-0.0462	0.0165	0.9585
10.8179	0.27841	0.7426	0.11402	-0.38551	-0.1282	0.93845	-28.0487	705.5823	-55.0471	274.7203	72.8734	804.3935	-0.0592	0.0182	-0.0073	-0.0462	0.0165	0.9585
10.8313	0.25451	1.3351	0.13226	-0.5683	-0.17131	1.5218	-24.8256	708.2763	-54.8011	275.4817	70.7936	802.6865	-0.0592	0.0182	-0.0073	-0.0462	0.0165	0.9585
10.8446	0.1561	1.7481	0.15115	-0.68465	-0.2368	1.9159	-21.5048	716.0043	-54.9404	278.1851	69.1116	806.3604	-0.0592	0.0182	-0.0073	-0.0462	0.0165	0.9585
10.858	0.026413	1.8857	0.16916	-0.70459	-0.30755	2.0144	-18.0202	727.5288	-55.3523	282.3635	67.6796	813.9947	-0.0592	0.0182	-0.0073	-0.0462	0.0165	0.9585
10.8714	-0.13394	1.6799	0.18687	-0.60709	-0.38072	1.7548	-14.3507	741.2031	-55.9129	287.3917	66.3528	823.7746	-0.0592	0.0182	-0.0073	-0.0462	0.0165	0.9585
